<svg xmlns="http://www.w3.org/2000/svg" version="1.1" xmlns:xlink="http://www.w3.org/1999/xlink" width="1000" height="1000"><g clip-path="url(#SvgjsClipPath1120)"><rect width="1000" height="1000" fill="#ffffff"></rect><g transform="matrix(0.5,0,0,0.5,0,0)"><svg xmlns="http://www.w3.org/2000/svg" version="1.1" xmlns:xlink="http://www.w3.org/1999/xlink" width="2000" height="2000"><svg width="2000" height="2000" viewBox="0 0 2000 2000" fill="none" xmlns="http://www.w3.org/2000/svg">
<g clip-path="url(#clip0_4064_2553)">
<path d="M2000 0H0V2000H2000V0Z" fill="#535F28"></path>
<path d="M819.096 1024.67C828.205 1006.17 833.036 981.729 833.589 951.352V445.149C833.589 424.718 831.645 406.904 827.786 391.708C823.912 376.527 817.555 363.948 808.731 354.016C799.891 344.07 788.285 337.444 773.941 334.139V332.479C826.963 334.692 863.129 335.799 882.468 335.799L933.008 334.139C962.279 333.032 982.426 332.479 993.494 332.479C1024.42 332.479 1052.04 338.97 1076.34 351.952C1100.65 364.935 1121.35 383.571 1138.47 407.876C1157.8 435.502 1172.3 469.334 1181.97 509.374C1191.63 549.429 1196.46 593.746 1196.46 642.341C1196.46 708.077 1188.04 773.245 1171.2 837.873C1154.34 902.487 1129.9 955.659 1097.88 997.359C1065.84 1039.07 1028.28 1059.91 985.208 1059.91C970.834 1059.91 949.85 1059.37 922.239 1058.25C894.614 1057.16 873.898 1056.59 860.108 1056.59C849.608 1056.59 833.036 1057.41 810.406 1059.07L773.956 1060.73V1059.07C794.94 1054.66 810.002 1043.2 819.111 1024.69L819.096 1024.67ZM1070.96 1005.2C1094.98 973.174 1112.79 931.459 1124.4 880.097C1136 828.735 1141.79 774.606 1141.79 717.709C1141.79 605.592 1125.22 514.31 1092.09 443.893C1058.95 373.475 1007.85 338.252 938.811 338.252C923.346 338.252 910.498 343.636 900.282 354.405C890.052 365.174 884.951 377.185 884.951 390.452V977.018C884.951 1003.54 893.372 1022.88 910.214 1035.02C927.055 1047.18 951.495 1053.24 983.533 1053.24C1017.77 1053.24 1046.91 1037.22 1070.94 1005.18L1070.96 1005.2Z" fill="#FFFBF9"></path>
<path d="M955.697 1607.5C964.522 1598.1 970.744 1586.24 974.334 1571.87C977.923 1557.51 979.718 1539.56 979.718 1518.01V1015.11C979.718 993.575 977.504 975.492 973.092 960.85C968.665 946.222 962.039 934.331 953.214 925.222C944.375 916.113 933.052 909.353 919.247 904.926V903.265L934.159 904.926C967.842 908.246 992.431 909.891 1007.9 909.891C1018.94 909.891 1034.95 908.799 1055.95 906.571C1076.38 904.372 1121.57 895.278 1160.59 894.336C1217.89 892.945 1249.84 915.695 1276.07 940.538C1302.29 965.396 1315.43 1006.54 1315.43 1063.98C1315.43 1102.64 1309.49 1139.79 1297.61 1175.41C1285.72 1211.03 1268.88 1239.9 1247.07 1261.98C1225.25 1284.07 1176.85 1303.48 1147.58 1303.21C1103.55 1302.8 1058.71 1287.4 1036.06 1271.92V1517.98C1036.06 1542.29 1037.84 1560.65 1041.45 1573.08C1045.03 1585.51 1051.66 1595.59 1061.32 1603.32C1070.99 1611.07 1086.3 1619.36 1107.3 1628.18L1106.48 1629.84C1092.67 1628.18 1077.19 1627.09 1060.08 1626.52C1042.96 1625.98 1026.38 1625.7 1010.38 1625.7C996.574 1625.7 971.447 1626.81 934.982 1629.02L919.247 1629.84V1628.18C934.698 1623.77 946.858 1616.88 955.697 1607.47V1607.5ZM1232.98 1233.44C1250.38 1197.27 1259.08 1154.05 1259.08 1103.78C1259.08 1070.09 1255.08 1038.33 1247.07 1008.5C1239.06 978.678 1227.05 954.373 1211.03 935.602C1195.01 916.831 1183.04 906.705 1155.27 904.357C1122.84 901.62 1062.28 911.716 1051.8 920.271C1041.3 928.842 1036.05 942.228 1036.05 960.446V1268.65C1050.4 1276.93 1062.56 1282.2 1072.5 1284.38C1082.44 1286.6 1133.76 1295.96 1143.15 1295.74C1190.75 1294.57 1215.56 1269.62 1232.95 1233.44H1232.98Z" fill="#FFFBF9"></path>
<path d="M857.446 1851.71C853.407 1851.71 849.369 1851.39 845.301 1850.67C812.814 1844.98 789.691 1817.87 767.33 1791.66C751.326 1772.89 734.769 1753.49 718.137 1747.45C700.906 1741.18 675.36 1745.45 650.651 1749.56C617.058 1755.15 582.313 1760.96 554.373 1744.79C526.149 1728.45 513.78 1695.25 501.814 1663.15C493.139 1639.85 484.165 1615.77 470.39 1604.19C456.525 1592.56 431.188 1587.86 406.673 1583.33C373.065 1577.11 338.29 1570.67 317.395 1545.8C296.56 1521 296.246 1485.72 295.917 1451.59C295.693 1426.61 295.439 1400.76 286.33 1385.01C277.386 1369.56 255.294 1356.58 233.936 1344.05C204.306 1326.65 173.674 1308.66 162.456 1277.86C151.478 1247.69 163.204 1214.59 174.557 1182.59C182.962 1158.88 191.652 1134.38 188.467 1116.16C185.445 1098.9 169.292 1079.32 153.662 1060.39C131.675 1033.75 108.94 1006.2 108.94 973.039C108.94 939.88 131.675 912.329 153.662 885.691C169.292 866.755 185.445 847.177 188.467 829.916C191.652 811.699 182.962 787.184 174.557 763.478C163.204 731.47 151.463 698.37 162.456 668.202C173.674 637.406 204.306 619.412 233.921 602.017C255.279 589.469 277.371 576.501 286.315 561.036C295.424 545.286 295.678 519.44 295.902 494.462C296.231 460.345 296.56 425.047 317.38 400.248C338.275 375.36 373.035 368.929 406.658 362.721C431.173 358.189 456.525 353.493 470.375 341.856C484.15 330.28 493.124 306.184 501.799 282.896C513.75 250.784 526.119 217.594 554.343 201.261C582.268 185.093 617.028 190.896 650.621 196.49C675.315 200.618 700.876 204.881 718.107 198.599C734.739 192.541 751.296 173.142 767.3 154.386C789.661 128.182 812.784 101.065 845.271 95.3811C876.665 89.9068 907.073 107.107 936.493 123.784C958.51 136.243 981.259 149.136 999.97 149.136C1018.68 149.136 1041.45 136.243 1063.45 123.784C1092.87 107.122 1123.28 89.9218 1154.67 95.3811C1187.14 101.065 1210.26 128.182 1232.63 154.386C1248.63 173.157 1265.19 192.556 1281.82 198.599C1299.05 204.866 1324.6 200.603 1349.3 196.49C1382.9 190.896 1417.64 185.078 1445.58 201.261C1473.81 217.594 1486.18 250.799 1498.13 282.896C1506.8 306.199 1515.78 330.295 1529.55 341.871C1543.42 353.508 1568.75 358.204 1593.27 362.736C1626.88 368.958 1661.64 375.39 1682.55 400.263C1703.38 425.062 1703.71 460.345 1704.02 494.477C1704.25 519.455 1704.5 545.301 1713.61 561.05C1722.55 576.501 1744.65 589.484 1766 602.017C1795.63 619.412 1826.27 637.406 1837.48 668.202C1848.46 698.37 1836.72 731.47 1825.38 763.478C1816.98 787.184 1808.29 811.699 1811.47 829.916C1814.5 847.177 1830.65 866.755 1846.28 885.691C1868.27 912.329 1891 939.88 1891 973.039C1891 1006.2 1868.27 1033.75 1846.28 1060.39C1830.65 1079.32 1814.5 1098.9 1811.47 1116.16C1808.29 1134.38 1816.98 1158.89 1825.38 1182.6C1836.74 1214.61 1848.46 1247.71 1837.48 1277.88C1826.27 1308.67 1795.63 1326.67 1766.02 1344.06C1744.66 1356.61 1722.57 1369.58 1713.63 1385.04C1704.5 1400.79 1704.26 1426.64 1704.04 1451.62C1703.71 1485.73 1703.38 1521.03 1682.56 1545.83C1661.67 1570.7 1626.91 1577.14 1593.28 1583.36C1568.77 1587.89 1543.42 1592.59 1529.57 1604.22C1515.79 1615.8 1506.83 1639.89 1498.14 1663.18C1486.19 1695.29 1473.82 1728.48 1445.58 1744.82C1417.66 1760.99 1382.91 1755.18 1349.3 1749.59C1324.6 1745.46 1299.03 1741.21 1281.82 1747.48C1265.19 1753.54 1248.63 1772.94 1232.63 1791.69C1210.26 1817.91 1187.14 1845.01 1154.67 1850.7C1123.31 1856.19 1092.87 1838.97 1063.45 1822.29C1041.43 1809.82 1018.68 1796.93 999.97 1796.93C981.259 1796.93 958.495 1809.82 936.493 1822.29C910.887 1836.8 884.518 1851.73 857.416 1851.73L857.446 1851.71ZM696.359 1707.96C708.22 1707.96 719.737 1709.41 730.551 1713.35C756.172 1722.67 775.87 1745.77 794.926 1768.11C813.128 1789.43 831.944 1811.5 851.553 1814.94C870.174 1818.2 894.793 1804.21 918.634 1790.71C944.734 1775.93 971.717 1760.63 1000 1760.63C1028.28 1760.63 1055.27 1775.91 1081.37 1790.71C1105.22 1804.21 1129.86 1818.18 1148.46 1814.94C1168.07 1811.51 1186.89 1789.45 1205.09 1768.12C1224.14 1745.77 1243.86 1722.68 1269.48 1713.35C1295.65 1703.81 1326 1708.88 1355.33 1713.77C1382.61 1718.31 1410.82 1723.01 1427.47 1713.39C1444.42 1703.58 1454.47 1676.58 1464.19 1650.48C1474.51 1622.78 1485.17 1594.13 1506.28 1576.4C1527.46 1558.62 1557.59 1553.04 1586.73 1547.64C1614.06 1542.58 1642.31 1537.36 1654.83 1522.45C1667.29 1507.63 1667.54 1478.96 1667.81 1451.23C1668.1 1421.55 1668.38 1390.85 1682.28 1366.83C1696.01 1343.09 1722.29 1327.65 1747.7 1312.73C1771.79 1298.58 1796.7 1283.95 1803.46 1265.42C1809.98 1247.5 1800.47 1220.64 1791.25 1194.67C1781.28 1166.55 1770.97 1137.46 1775.8 1109.85C1780.48 1083.15 1799.75 1059.82 1818.37 1037.25C1836.27 1015.55 1854.79 993.112 1854.79 972.994C1854.79 952.877 1836.27 930.427 1818.37 908.724C1799.75 886.154 1780.48 862.822 1775.8 836.124C1770.97 808.513 1781.28 779.437 1791.25 751.318C1800.47 725.337 1809.98 698.49 1803.46 680.571C1796.71 662.04 1771.79 647.397 1747.7 633.263C1722.29 618.336 1696.01 602.9 1682.28 579.178C1668.37 555.157 1668.1 524.466 1667.81 494.776C1667.56 467.061 1667.29 438.389 1654.83 423.551C1642.31 408.639 1614.06 403.419 1586.73 398.364C1557.59 392.979 1527.46 387.4 1506.28 369.602C1485.17 351.878 1474.51 323.235 1464.19 295.52C1454.47 269.42 1444.42 242.423 1427.47 232.611C1410.81 222.979 1382.6 227.675 1355.33 232.237C1326 237.128 1295.67 242.198 1269.48 232.656C1243.86 223.338 1224.16 200.229 1205.09 177.899C1186.89 156.57 1168.07 134.508 1148.46 131.083C1129.9 127.778 1105.22 141.792 1081.38 155.314C1055.28 170.091 1028.3 185.377 1000.02 185.377C971.732 185.377 944.749 170.091 918.649 155.314C894.793 141.807 870.129 127.808 851.567 131.083C831.944 134.508 813.128 156.57 794.941 177.899C775.885 200.229 756.172 223.338 730.566 232.656C704.376 242.183 674.044 237.128 644.713 232.237C617.432 227.69 589.223 222.994 572.576 232.611C555.629 242.423 545.578 269.405 535.856 295.52C525.536 323.235 514.872 351.878 493.768 369.602C472.589 387.385 442.465 392.964 413.314 398.349C385.988 403.404 357.734 408.624 345.215 423.536C332.756 438.359 332.502 467.031 332.233 494.761C331.948 524.436 331.664 555.142 317.769 579.163C304.039 602.9 277.759 618.336 252.348 633.263C228.252 647.412 203.349 662.04 196.588 680.571C190.067 698.49 199.58 725.352 208.793 751.318C218.769 779.437 229.075 808.513 224.243 836.138C219.562 862.822 200.312 886.169 181.676 908.739C163.773 930.442 145.256 952.877 145.256 973.009C145.256 993.142 163.773 1015.58 181.676 1037.26C200.297 1059.83 219.562 1083.18 224.243 1109.87C229.075 1137.48 218.769 1166.55 208.793 1194.67C199.58 1220.65 190.067 1247.5 196.588 1265.42C203.334 1283.95 228.252 1298.59 252.348 1312.73C277.759 1327.65 304.039 1343.09 317.769 1366.81C331.679 1390.83 331.948 1421.52 332.233 1451.21C332.487 1478.93 332.756 1507.6 345.215 1522.44C357.734 1537.35 385.988 1542.57 413.314 1547.63C442.45 1553.01 472.589 1558.59 493.768 1576.39C514.872 1594.11 525.536 1622.75 535.841 1650.47C545.563 1676.57 555.615 1703.57 572.561 1713.38C589.223 1723.01 617.432 1718.31 644.698 1713.75C661.928 1710.88 679.488 1707.95 696.359 1707.95V1707.96Z" fill="#FFFBF9"></path>
</g>
<defs>
<clipPath id="clip0_4064_2553">
<rect width="2000" height="2000" fill="white"></rect>
</clipPath>
<clipPath id="SvgjsClipPath1120"><rect width="1000" height="1000" x="0" y="0" rx="500" ry="500"></rect></clipPath></defs>
</svg></svg></g></g></svg>